<svg width="23" height="23" viewBox="0 0 23 23" fill="none" xmlns="http://www.w3.org/2000/svg">
<g id="Resource Icons">
<path id="XMLID_116_" d="M20.1224 6.23853L15.3685 1.63696C15.0794 1.35571 14.6849 1.19556 14.2786 1.19556L5.3255 1.17212C4.23956 1.17212 3.35675 2.04712 3.35675 3.12524V19.2112C3.35675 20.2698 4.26691 21.1682 5.34503 21.1682H18.5872C19.6458 21.1682 20.5052 20.2893 20.5052 19.2073V7.17212C20.5052 6.80884 20.3685 6.47681 20.1224 6.23853ZM15.3489 3.79321L17.806 6.16821H15.7747C15.5482 6.16821 15.3489 5.99243 15.3489 5.79321V3.79321ZM18.5872 19.6057H5.34503C5.12628 19.6057 4.91925 19.4143 4.91925 19.2073V3.12524C4.91925 2.91821 5.11066 2.73462 5.3255 2.73462L13.7864 2.75806V5.79321C13.7864 6.85962 14.6771 7.73071 15.7747 7.73071H18.9427V19.2073C18.9427 19.4026 18.8099 19.6057 18.5872 19.6057Z" fill="url(#paint0_linear_1933_2405)"/>
<path id="XMLID_223_" d="M8.8255 7.14478C8.39581 7.14478 8.04425 7.49634 8.04425 7.92603V16.3635C8.04425 16.7932 8.39581 17.1448 8.8255 17.1448C9.25519 17.1448 9.60675 16.7932 9.60675 16.3635V7.92603C9.60675 7.49634 9.25519 7.14478 8.8255 7.14478Z" fill="url(#paint1_linear_1933_2405)"/>
<path id="XMLID_305_" d="M11.9505 9.17603C11.5208 9.17603 11.1693 9.52759 11.1693 9.95728V16.3635C11.1693 16.7932 11.5208 17.1448 11.9505 17.1448C12.3802 17.1448 12.7318 16.7932 12.7318 16.3635V9.95728C12.7318 9.52759 12.3802 9.17603 11.9505 9.17603Z" fill="url(#paint2_linear_1933_2405)"/>
<path id="XMLID_307_" d="M15.0755 11.2073C14.6458 11.2073 14.2943 11.5588 14.2943 11.9885V16.3635C14.2943 16.7932 14.6458 17.1448 15.0755 17.1448C15.5052 17.1448 15.8568 16.7932 15.8568 16.3635V11.9885C15.8568 11.5588 15.5052 11.2073 15.0755 11.2073Z" fill="url(#paint3_linear_1933_2405)"/>
</g>
<defs>
<linearGradient id="paint0_linear_1933_2405" x1="11.931" y1="1.17212" x2="11.931" y2="21.1682" gradientUnits="userSpaceOnUse">
<stop stop-color="#254281"/>
<stop offset="1" stop-color="#8039DD"/>
</linearGradient>
<linearGradient id="paint1_linear_1933_2405" x1="8.8255" y1="7.14478" x2="8.8255" y2="17.1448" gradientUnits="userSpaceOnUse">
<stop stop-color="#254281"/>
<stop offset="1" stop-color="#8039DD"/>
</linearGradient>
<linearGradient id="paint2_linear_1933_2405" x1="11.9505" y1="9.17603" x2="11.9505" y2="17.1448" gradientUnits="userSpaceOnUse">
<stop stop-color="#254281"/>
<stop offset="1" stop-color="#8039DD"/>
</linearGradient>
<linearGradient id="paint3_linear_1933_2405" x1="15.0755" y1="11.2073" x2="15.0755" y2="17.1448" gradientUnits="userSpaceOnUse">
<stop stop-color="#254281"/>
<stop offset="1" stop-color="#8039DD"/>
</linearGradient>
</defs>
</svg>
