<?xml version="1.0" encoding="UTF-8"?>
<svg xmlns="http://www.w3.org/2000/svg" id="Layer_1" data-name="Layer 1" viewBox="0 0 89 45.53">
  <path d="M8.28,2.32c1.34,0,2.37.37,3.15,1.12.77.74,1.26,1.78,1.47,3.12h2.51c-.27-2.01-1.03-3.59-2.25-4.75C11.93.66,10.3.09,8.26.09c-1.72,0-3.19.42-4.44,1.25-1.25.83-2.19,2.02-2.84,3.58-.66,1.56-.98,3.38-.98,5.49s.32,3.95.95,5.53c.63,1.57,1.55,2.79,2.72,3.64,1.17.86,2.53,1.28,4.08,1.28s2.65-.35,3.55-1.03c.9-.68,1.52-1.39,1.85-2.11v2.9h2.29v-6.95c0-1.1-.31-1.96-.94-2.57s-1.51-.92-2.65-.92h-3.61v2.14h3.15c.56,0,.96.14,1.22.42.26.29.4.72.4,1.31,0,.83-.21,1.6-.62,2.29-.42.69-.99,1.25-1.73,1.66-.74.41-1.58.62-2.52.62-1.77,0-3.15-.72-4.13-2.17-.98-1.45-1.47-3.45-1.47-5.97s.51-4.55,1.52-6c1.01-1.45,2.44-2.17,4.27-2.18h-.05Z"></path>
  <path d="M87.5,32.01c-.99-1.08-2.31-1.62-3.94-1.62-1.14,0-2.13.26-2.98.78-.84.52-1.46,1.28-1.82,2.26v-8.81h-2.31v20.61h2.31v-7.88c0-1.41.4-2.57,1.2-3.48.8-.9,1.83-1.36,3.08-1.36,1.1,0,1.98.38,2.65,1.14.67.77,1,1.77,1,3.02v8.55h2.31v-8.93c0-1.78-.49-3.21-1.48-4.29h-.01Z"></path>
  <path d="M67.41,32.48c1.1,0,2.05.29,2.86.87.82.58,1.29,1.31,1.45,2.21h2.29c-.14-1.04-.52-1.96-1.15-2.74-.63-.78-1.43-1.39-2.39-1.8-.95-.41-1.98-.62-3.08-.62-1.46,0-2.73.35-3.8,1.04-1.08.69-1.88,1.62-2.45,2.76-.56,1.15-.84,2.39-.84,3.73s.28,2.58.84,3.73c.56,1.15,1.37,2.07,2.45,2.76,1.06.69,2.34,1.04,3.8,1.04,1.76,0,3.23-.45,4.43-1.35,1.2-.9,1.92-2.11,2.16-3.61h-2.25c-.27.89-.78,1.59-1.53,2.11-.75.51-1.67.77-2.74.77-1.52,0-2.68-.51-3.5-1.54-.82-1.03-1.21-2.33-1.21-3.92s.4-2.89,1.2-3.92c.8-1.03,1.97-1.54,3.49-1.54h-.01Z"></path>
  <path d="M76.49,20.61h2.31V3.05c0-.97-.26-1.71-.79-2.24-.53-.55-1.29-.81-2.24-.81h-3.09v2.06h2.81c.32,0,.58.09.75.26.17.17.26.42.26.76v17.54h-.01Z"></path>
  <path d="M61.08,16.41c0-.86.32-1.51.95-2,.63-.48,1.51-.72,2.6-.72h4.11v.35c0,1.51-.41,2.69-1.22,3.56-.82.86-1.97,1.29-3.43,1.29-.9,0-1.63-.22-2.18-.68-.54-.46-.83-1.05-.83-1.78h0ZM66.79,20.09c.89-.51,1.55-1.18,1.95-2.03v2.55h2.29v-9.42c0-1.64-.56-2.96-1.66-3.94-1.11-.99-2.61-1.48-4.5-1.48-1.06,0-2.05.21-2.97.64-.91.42-1.66,1.02-2.24,1.76-.58.74-.9,1.57-.99,2.5h2.23c.04-.81.43-1.5,1.19-2.07.75-.57,1.67-.86,2.74-.86,1.21,0,2.16.31,2.86.93.69.62,1.04,1.43,1.04,2.43,0,.46-.32.69-.95.69h-3.29c-1.76,0-3.15.42-4.2,1.26-1.05.84-1.57,1.97-1.57,3.38,0,1.31.46,2.38,1.37,3.19.91.81,2.14,1.21,3.66,1.21,1.14,0,2.15-.25,3.05-.76h-.01Z"></path>
  <path d="M45.74,17.27c-.89-.99-1.34-2.32-1.34-3.95s.45-2.96,1.34-3.95c.89-.99,2.06-1.5,3.52-1.5s2.63.5,3.51,1.5c.88.99,1.31,2.32,1.31,3.95s-.43,2.96-1.31,3.95c-.88.99-2.05,1.49-3.51,1.49s-2.63-.5-3.52-1.49ZM53.27,19.87c1.05-.66,1.85-1.55,2.4-2.7.54-1.14.83-2.43.83-3.86s-.27-2.71-.83-3.86c-.56-1.14-1.35-2.05-2.4-2.7-1.05-.66-2.31-.99-3.77-.99-1.03,0-1.98.24-2.86.71-.89.47-1.55,1.1-1.99,1.9V0h-2.31v20.61h2.31v-2.4c.45.79,1.11,1.43,1.99,1.92.89.48,1.84.72,2.86.72,1.46,0,2.72-.33,3.77-.99h0Z"></path>
  <path d="M37.39,16.14c-.42.82-1.01,1.46-1.78,1.93-.77.47-1.63.69-2.62.69s-1.85-.24-2.62-.69c-.75-.46-1.35-1.1-1.78-1.93-.42-.82-.63-1.76-.63-2.83s.21-2.01.63-2.83c.42-.82,1.01-1.46,1.78-1.93.77-.46,1.63-.69,2.62-.69s1.85.24,2.62.69c.77.46,1.36,1.1,1.78,1.93.42.82.63,1.76.63,2.83s-.21,2.01-.63,2.83ZM40.43,13.31c0-1.45-.32-2.75-.95-3.89-.63-1.14-1.52-2.03-2.65-2.68-1.13-.64-2.4-.97-3.83-.97s-2.71.32-3.83.97c-1.13.64-2,1.54-2.65,2.68-.63,1.14-.95,2.43-.95,3.89s.32,2.74.95,3.88c.63,1.14,1.52,2.03,2.65,2.68,1.13.64,2.4.97,3.83.97s2.71-.32,3.83-.97c1.13-.64,2-1.54,2.65-2.68.63-1.14.95-2.43.95-3.88Z"></path>
  <path d="M20.96,2.32c.17.17.26.42.26.76v17.54h2.31V3.05c0-.97-.26-1.71-.79-2.24C22.21.27,21.47.01,20.5.01h-3.09v2.06h2.79c.32,0,.58.09.75.26"></path>
  <path d="M33.27,30.31h-.19v9.37c0,1.17-.22,2.09-.64,2.75-.42.64-.98.95-1.71.95-.87,0-1.53-.32-2.05-.97-.52-.66-.78-1.57-.78-2.74v-9.36h-2.34l-.04.19v9.19c0,1.17-.26,2.08-.78,2.74-.51.66-1.17.97-2.05.97-.73,0-1.3-.31-1.71-.95-.42-.66-.64-1.59-.64-2.75v-9.36h-2.34v9.85c0,1.72.4,3.05,1.17,3.92.78.88,1.87,1.33,3.23,1.33.82,0,1.59-.2,2.29-.58.94-.52,1.61-1.28,1.99-2.23.17.4.36.77.66,1.13.38.45.84.82,1.35,1.1.7.38,1.47.58,2.29.58,1.36,0,2.45-.45,3.23-1.33.78-.88,1.17-2.19,1.17-3.92v-9.85h-2.15l.04-.02Z"></path>
  <path d="M10.09,33.96l-2.6-.67c-1.19-.35-3.19-1.25-3.19-3.45,0-2.05,1.46-3.27,3.91-3.27,2.58,0,4.07,1.25,4.43,3.74l.02.16h2.49v-.2c-.3-3.77-2.78-5.84-7-5.84-3.72,0-6.42,2.36-6.42,5.62,0,2.73,1.72,4.64,4.96,5.52l2.62.69c1.88.53,3.45,1.18,3.45,3.78,0,3-2.97,3.32-4.25,3.32-3.36,0-4.45-2.47-4.81-3.94l-.04-.14H1.16l.04.21c.61,3.83,3.29,6.02,7.36,6.02s6.78-2.27,6.78-5.78c0-3.84-2.65-5.07-5.24-5.78h0Z"></path>
  <path d="M54.29,43.25c-.27,0-.48-.07-.62-.21-.14-.14-.21-.35-.21-.62v-10.04h4.03v-2.05h-4.03v-4.77h-2.18v4.77h-4.03v2.05h4.03v9.93c0,.93.26,1.67.79,2.19.52.52,1.26.79,2.19.79h4.43v-2.05h-4.4Z"></path>
  <path d="M41.68,30.33h-3.15v2.05h3.13c.27,0,.48.07.62.21.14.14.21.35.21.62v12.09h2.18v-11.96c0-.92-.27-1.65-.8-2.18-.53-.53-1.27-.81-2.18-.81h0Z"></path>
</svg>
